<svg id="visual" viewBox="0 0 960 300" width="960" height="300" xmlns="http://www.w3.org/2000/svg" xmlns:xlink="http://www.w3.org/1999/xlink" version="1.1"><rect x="0" y="0" width="960" height="300" fill="#ffffff"></rect><path d="M0 226L22.8 220.7C45.7 215.3 91.3 204.7 137 202.5C182.7 200.3 228.3 206.7 274 215.2C319.7 223.7 365.3 234.3 411.2 237.2C457 240 503 235 548.8 219.7C594.7 204.3 640.3 178.7 686 170.5C731.7 162.3 777.3 171.7 823 183.2C868.7 194.7 914.3 208.3 937.2 215.2L960 222L960 0L937.2 0C914.3 0 868.7 0 823 0C777.3 0 731.7 0 686 0C640.3 0 594.7 0 548.8 0C503 0 457 0 411.2 0C365.3 0 319.7 0 274 0C228.3 0 182.7 0 137 0C91.3 0 45.7 0 22.8 0L0 0Z" fill="#a7dedd"></path><path d="M0 148L22.8 157.3C45.7 166.7 91.3 185.3 137 184.2C182.7 183 228.3 162 274 155C319.7 148 365.3 155 411.2 165C457 175 503 188 548.8 187.2C594.7 186.3 640.3 171.7 686 158.5C731.7 145.3 777.3 133.7 823 139.5C868.7 145.3 914.3 168.7 937.2 180.3L960 192L960 0L937.2 0C914.3 0 868.7 0 823 0C777.3 0 731.7 0 686 0C640.3 0 594.7 0 548.8 0C503 0 457 0 411.2 0C365.3 0 319.7 0 274 0C228.3 0 182.7 0 137 0C91.3 0 45.7 0 22.8 0L0 0Z" fill="#91cbca"></path><path d="M0 133L22.8 128.3C45.7 123.7 91.3 114.3 137 119C182.7 123.7 228.3 142.3 274 151.2C319.7 160 365.3 159 411.2 152.8C457 146.7 503 135.3 548.8 135C594.7 134.7 640.3 145.3 686 142.3C731.7 139.3 777.3 122.7 823 120.5C868.7 118.3 914.3 130.7 937.2 136.8L960 143L960 0L937.2 0C914.3 0 868.7 0 823 0C777.3 0 731.7 0 686 0C640.3 0 594.7 0 548.8 0C503 0 457 0 411.2 0C365.3 0 319.7 0 274 0C228.3 0 182.7 0 137 0C91.3 0 45.7 0 22.8 0L0 0Z" fill="#7cb9b8"></path><path d="M0 63L22.8 66C45.7 69 91.3 75 137 83.2C182.7 91.3 228.3 101.7 274 101.8C319.7 102 365.3 92 411.2 90.3C457 88.7 503 95.3 548.8 100.8C594.7 106.3 640.3 110.7 686 104.2C731.7 97.7 777.3 80.3 823 72.3C868.7 64.3 914.3 65.7 937.2 66.3L960 67L960 0L937.2 0C914.3 0 868.7 0 823 0C777.3 0 731.7 0 686 0C640.3 0 594.7 0 548.8 0C503 0 457 0 411.2 0C365.3 0 319.7 0 274 0C228.3 0 182.7 0 137 0C91.3 0 45.7 0 22.8 0L0 0Z" fill="#66a7a6"></path><path d="M0 47L22.8 44.2C45.7 41.3 91.3 35.7 137 33.2C182.7 30.7 228.3 31.3 274 37.8C319.7 44.3 365.3 56.7 411.2 56.7C457 56.7 503 44.3 548.8 44.5C594.7 44.7 640.3 57.3 686 60.5C731.7 63.7 777.3 57.3 823 55.8C868.7 54.3 914.3 57.7 937.2 59.3L960 61L960 0L937.2 0C914.3 0 868.7 0 823 0C777.3 0 731.7 0 686 0C640.3 0 594.7 0 548.8 0C503 0 457 0 411.2 0C365.3 0 319.7 0 274 0C228.3 0 182.7 0 137 0C91.3 0 45.7 0 22.8 0L0 0Z" fill="#509594"></path></svg>